<?xml version="1.0" standalone="no"?><!DOCTYPE svg PUBLIC "-//W3C//DTD SVG 1.1//EN" "http://www.w3.org/Graphics/SVG/1.1/DTD/svg11.dtd"><svg t="1617154223225" class="icon" viewBox="0 0 1150 1024" version="1.1" xmlns="http://www.w3.org/2000/svg" p-id="2295" xmlns:xlink="http://www.w3.org/1999/xlink" width="71.875" height="64"><defs><style type="text/css"></style></defs><path d="M490.56 472v151.29c0 21.38 17.41 38.79 38.8 38.79h494.93c21.4 0 38.81-17.41 38.81-38.79V472c0-21.4-17.41-38.81-38.81-38.81H529.36c-21.39 0-38.8 17.41-38.8 38.81z m45.38 6.58h481.77V616.7H535.94V478.58z" fill="#666666" p-id="2296"></path><path d="M1128.04 319.76L961.9 73.47C951.82 59.16 936.12 50 918.81 48.33c-17.23-1.77-34.38 4.27-46.94 16.33L741.48 189.57c-2.04 1.99-5.12 1.93-7.16-0.07l-67.35-66.46c-12.44-12.29-29.54-18.58-46.83-17.02-17.37 1.45-33.21 10.44-43.47 24.68L490.7 250.02l-21.7-12.51c-9.7-5.6-20.8-8.56-32.09-8.56H317.32c-26.71 0-48.44 21.15-48.44 47.14v80.75h-45.94C100 356.84 0 451.47 0 567.79v225.17c0 34.29 28.92 62.17 64.47 62.17h9.67c9.18 68.26 67.67 121.1 138.41 121.1 70.77 0 129.29-52.91 138.42-121.23H634.8c9.13 68.32 67.64 121.23 138.43 121.23 70.05 0 128.06-51.84 138.1-119.13h192.54c25.45 0 46.15-20.19 46.15-44.99V357.9c-0.02-16.13-8.86-30.2-21.98-38.14z m-507.2-157.22c1.22-1.7 2.77-2.16 3.85-2.25 1.01-0.12 2.59 0.11 4.02 1.51l67.35 66.46c23.14 22.87 59.65 23.14 83.09 0.64l130.39-124.91c1.15-1.1 2.54-1.44 4.02-1.45 1.08 0.11 2.61 0.6 3.51 1.86l140.64 208.5-458.36-0.24-61.22-35.29 82.71-114.83zM64.48 515.13h131.63c1.13 0 2.05 0.99 2.05 2.22v53.68c0 1.22-0.92 2.22-2.05 2.22H54.46v-5.46c0-18.5 3.65-36.17 10.02-52.66z m148.06 406.64c-47.06 0-85.34-38.28-85.34-85.33s38.28-85.34 85.34-85.34c47.05 0 85.34 38.29 85.34 85.34 0 47.05-38.29 85.33-85.34 85.33z m0-225.13c-64.71 0-119.13 44.25-134.99 104.03H64.47c-5.42 0-10.01-3.53-10.01-7.71V627.71h141.65c31.16 0 56.51-25.42 56.51-56.68v-53.68c0-31.25-25.35-56.68-56.51-56.68H100.45c30.74-30.31 74.22-49.37 122.48-49.37h164.52c2.59 0 3.94 1.51 3.94 2.04v387.2h-43.9c-15.9-59.71-70.29-103.9-134.95-103.9z m560.68 225.13c-47.06 0-85.34-38.28-85.34-85.33s38.28-85.34 85.34-85.34c47.05 0 85.34 38.29 85.34 85.34-0.01 47.05-38.29 85.33-85.34 85.33z m322.32-119.14H908.71c-15.18-60.77-70.08-106-135.49-106-64.66 0-119.05 44.19-134.96 103.91h-192.4v-387.2c0-31.15-26.2-56.5-58.41-56.5h-64.11v-73.43H436.9c1.75 0 3.43 0.44 4.88 1.28l130.33 75.13c8.55 4.95 18.34 7.55 28.3 7.55h495.13v435.26z" fill="#666666" p-id="2297"></path><path d="M922.56 174.32m-27.23 0a27.23 27.23 0 1 0 54.46 0 27.23 27.23 0 1 0-54.46 0Z" fill="#666666" p-id="2298"></path><path d="M857.79 237.29m-27.23 0a27.23 27.23 0 1 0 54.46 0 27.23 27.23 0 1 0-54.46 0Z" fill="#666666" p-id="2299"></path><path d="M647.29 242.69m-27.23 0a27.23 27.23 0 1 0 54.46 0 27.23 27.23 0 1 0-54.46 0Z" fill="#666666" p-id="2300"></path><path d="M960.34 244.49m-27.23 0a27.23 27.23 0 1 0 54.46 0 27.23 27.23 0 1 0-54.46 0Z" fill="#666666" p-id="2301"></path></svg>