<?xml version="1.0" standalone="no"?><!DOCTYPE svg PUBLIC "-//W3C//DTD SVG 1.1//EN" "http://www.w3.org/Graphics/SVG/1.1/DTD/svg11.dtd"><svg t="1617154235950" class="icon" viewBox="0 0 1200 1024" version="1.1" xmlns="http://www.w3.org/2000/svg" p-id="3278" xmlns:xlink="http://www.w3.org/1999/xlink" width="75" height="64"><defs><style type="text/css"></style></defs><path d="M545.76 343.76v177.11c0 32.6 26.53 59.12 59.13 59.12h392.15c32.6 0 59.13-26.53 59.13-59.12V343.76c0-32.6-26.53-59.12-59.13-59.12H604.89c-32.6-0.01-59.13 26.52-59.13 59.12z m453.59 0v177.11c0 1.26-1.04 2.29-2.3 2.29H604.89c-1.27 0-2.3-1.04-2.3-2.29V343.76c0-1.26 1.04-2.29 2.3-2.29h392.15a2.3 2.3 0 0 1 2.31 2.29z" fill="#666666" p-id="3279"></path><path d="M1151.85 196.04l-525.76-0.13-136.01-83.52a65.146 65.146 0 0 0-34.17-9.68h-124.8c-27.87 0-50.55 22.68-50.55 50.56v91.59h-47.94C104.35 244.86 0 349.21 0 477.49v250.29c0 37.09 30.18 67.26 67.27 67.26h10.07c9.52 71.29 70.58 126.5 144.44 126.5s134.92-55.21 144.44-126.5h137.61c9.52 71.29 70.58 126.5 144.44 126.5 59.78 0 111.22-36.17 133.73-87.75 22.51 51.58 73.95 87.75 133.73 87.75 73.09 0 133.63-54.09 144.1-124.31h92.02c26.56 0 48.15-21.61 48.15-48.15V244.2c0-26.55-21.6-48.16-48.15-48.16zM84.61 383.01H222.5c1.27 0 2.3 1.04 2.3 2.31v56.02c0 1.28-1.04 2.31-2.3 2.31H60.17c4.3-21.96 12.77-42.41 24.44-60.64z m137.17 481.7c-49.1 0-89.05-39.94-89.05-89.04s39.95-89.05 89.05-89.05c49.11 0 89.05 39.96 89.05 89.05s-39.95 89.04-89.05 89.04z m0-234.92c-67.47 0-124.22 46.11-140.82 108.42h-13.69c-5.76 0-10.44-4.68-10.44-10.43v-227.3h165.68c32.6 0 59.13-26.53 59.13-59.14v-56.02c0-32.61-26.53-59.14-59.13-59.14H143.56c26.16-15.46 56.54-24.49 89.06-24.49H404.3a4.13 4.13 0 0 1 4.12 4.13v432.4H362.6c-16.6-62.32-73.35-108.43-140.82-108.43z m426.48 234.92c-49.1 0-89.05-39.94-89.05-89.04s39.95-89.05 89.05-89.05c49.11 0 89.05 39.96 89.05 89.05s-39.94 89.04-89.05 89.04z m267.46 0c-49.11 0-89.05-39.94-89.05-89.04s39.95-89.05 89.05-89.05c49.1 0 89.05 39.96 89.05 89.05s-39.95 89.04-89.05 89.04z m227.45-124.31H1057.1c-15.84-63.42-73.13-110.61-141.38-110.61-59.78 0-111.22 36.18-133.73 87.76-22.51-51.58-73.95-87.76-133.73-87.76-67.47 0-124.22 46.11-140.82 108.42h-42.2v-432.4c0-33.61-27.34-60.95-60.95-60.95h-66.9v-85.32H455.9c1.54 0 3.06 0.43 4.4 1.26l136.03 83.54a57.714 57.714 0 0 0 30.18 8.53h516.65V740.4z" fill="#666666" p-id="3280"></path></svg>